<?xml version="1.0" ?>
<svg baseProfile="tiny" id="Layer_1" overflow="scroll" version="1.1" viewBox="0 0 24 24"
    xml:space="preserve" xmlns="http://www.w3.org/2000/svg" xmlns:xlink="http://www.w3.org/1999/xlink">
    <path
        d="M22.2133789,22.75V20c0-0.4140625-0.3359375-0.75-0.75-0.75s-0.75,0.3359375-0.75,0.75v2H3.262207v-2  c0-0.4140625-0.3359375-0.75-0.75-0.75s-0.75,0.3359375-0.75,0.75v2.75c0,0.4140625,0.3359375,0.75,0.75,0.75h18.9511719  C21.8774414,23.5,22.2133789,23.1640625,22.2133789,22.75z"
        fill="#000" />
    <path
        d="M22.237793,5c0-0.1972656-0.078125-0.3867188-0.2167969-0.5273438l-3.7094727-3.75  C18.1704102,0.5800781,17.9785156,0.5,17.7783203,0.5H2.512207c-0.4140625,0-0.75,0.3359375-0.75,0.75V7.5  c0,0.4140625,0.3359375,0.75,0.75,0.75s0.75-0.3359375,0.75-0.75V2H16.237793v4c0,0.4140625,0.3359375,0.75,0.75,0.75h3.75V7.5  c0,0.4140625,0.3359375,0.75,0.75,0.75s0.75-0.3359375,0.75-0.75V5z M17.737793,2.2754517L20.6798096,5.25H17.737793V2.2754517z"
        fill="#000" />
    <path
        d="M2.2905273,17.6699219c0.1191406,0.0693359,0.2495117,0.1025391,0.378418,0.1025391  c0.2573242,0,0.5083008-0.1328125,0.6479492-0.3710938l1.272583-2.1743164l1.2655029,2.1313477  c0.1401367,0.2363281,0.3896484,0.3671875,0.6455078,0.3671875c0.1303711,0,0.262207-0.0341797,0.3823242-0.1054688  c0.3564453-0.2109375,0.4736328-0.6708984,0.262207-1.0273438l-1.6895142-2.8453979l1.6919556-2.8909302  c0.2089844-0.3574219,0.0888672-0.8173828-0.2685547-1.0263672c-0.3554688-0.2070313-0.8168945-0.0888672-1.0263672,0.2685547  l-1.272583,2.1743164l-1.2655029-2.1313477c-0.2109375-0.3564453-0.6713867-0.4716797-1.027832-0.2617188  c-0.3564453,0.2109375-0.4736328,0.6708984-0.262207,1.0273438l1.6895142,2.8453979l-1.6919556,2.8909302  C1.8129883,17.0009766,1.9331055,17.4609375,2.2905273,17.6699219z"
        fill="#000" />
    <path
        d="M17.5,9.75c-0.4140625,0-0.75,0.3359375-0.75,0.75V17c0,0.4140625,0.3359375,0.75,0.75,0.75h3.6362305  c0.4140625,0,0.75-0.3359375,0.75-0.75s-0.3359375-0.75-0.75-0.75H18.25V10.5C18.25,10.0859375,17.9140625,9.75,17.5,9.75z"
        fill="#000" />
    <path
        d="M14.5,17.75c0.4140625,0,0.75-0.3359375,0.75-0.75v-6.5  c0-0.3300781-0.2163086-0.6220703-0.5327148-0.7177734c-0.3173828-0.0957031-0.6582031,0.0263672-0.8413086,0.3017578L12,12.8974609  l-1.8759766-2.8134766C9.940918,9.8085938,9.5996094,9.6865234,9.2827148,9.7822266C8.9663086,9.8779297,8.75,10.1699219,8.75,10.5  V17c0,0.4140625,0.3359375,0.75,0.75,0.75s0.75-0.3359375,0.75-0.75v-4.0224609l1.1259766,1.6884766  c0.2783203,0.4179688,0.9697266,0.4179688,1.2480469,0L13.75,12.9775391V17C13.75,17.4140625,14.0859375,17.75,14.5,17.75z"
        fill="#000" />
</svg>